<svg xmlns="http://www.w3.org/2000/svg" xmlns:xlink="http://www.w3.org/1999/xlink" width="1080" zoomAndPan="magnify" viewBox="0 0 810 809.999993" height="1080" preserveAspectRatio="xMidYMid meet" version="1.0"><defs><clipPath id="f621046b11"><path d="M 0 56.699219 L 810 56.699219 L 810 747 L 0 747 Z M 0 56.699219 " clip-rule="nonzero"/></clipPath></defs><path fill="#ededed" d="M 476.390625 342.25 C 476.390625 343.417969 476.359375 344.585938 476.304688 345.753906 C 476.246094 346.921875 476.160156 348.085938 476.046875 349.25 C 475.929688 350.410156 475.789062 351.570312 475.617188 352.726562 C 475.445312 353.882812 475.246094 355.03125 475.015625 356.179688 C 474.789062 357.324219 474.535156 358.464844 474.25 359.597656 C 473.964844 360.730469 473.652344 361.855469 473.316406 362.972656 C 472.976562 364.09375 472.609375 365.203125 472.214844 366.300781 C 471.820312 367.402344 471.402344 368.492188 470.953125 369.570312 C 470.507812 370.648438 470.035156 371.71875 469.535156 372.773438 C 469.035156 373.828125 468.511719 374.875 467.960938 375.902344 C 467.410156 376.933594 466.832031 377.949219 466.230469 378.953125 C 465.632812 379.953125 465.007812 380.941406 464.359375 381.914062 C 463.707031 382.882812 463.035156 383.839844 462.339844 384.777344 C 461.644531 385.714844 460.925781 386.636719 460.183594 387.539062 C 459.441406 388.441406 458.679688 389.328125 457.894531 390.191406 C 457.109375 391.058594 456.304688 391.90625 455.480469 392.730469 C 454.652344 393.558594 453.808594 394.363281 452.941406 395.148438 C 452.074219 395.929688 451.191406 396.695312 450.289062 397.433594 C 449.386719 398.175781 448.464844 398.894531 447.527344 399.589844 C 446.589844 400.289062 445.632812 400.960938 444.660156 401.609375 C 443.691406 402.257812 442.703125 402.882812 441.703125 403.484375 C 440.699219 404.085938 439.683594 404.660156 438.652344 405.210938 C 437.621094 405.761719 436.578125 406.285156 435.523438 406.785156 C 434.464844 407.285156 433.398438 407.757812 432.320312 408.207031 C 431.238281 408.652344 430.148438 409.074219 429.050781 409.46875 C 427.949219 409.859375 426.839844 410.226562 425.722656 410.566406 C 424.605469 410.90625 423.480469 411.214844 422.347656 411.5 C 421.210938 411.785156 420.074219 412.039062 418.925781 412.269531 C 417.78125 412.496094 416.628906 412.695312 415.476562 412.867188 C 414.320312 413.039062 413.160156 413.183594 411.996094 413.296875 C 410.835938 413.410156 409.667969 413.496094 408.503906 413.554688 C 407.335938 413.613281 406.167969 413.640625 405 413.640625 C 403.832031 413.640625 402.664062 413.613281 401.496094 413.554688 C 400.332031 413.496094 399.164062 413.410156 398.003906 413.296875 C 396.839844 413.183594 395.679688 413.039062 394.523438 412.867188 C 393.371094 412.695312 392.21875 412.496094 391.074219 412.269531 C 389.925781 412.039062 388.789062 411.785156 387.652344 411.5 C 386.519531 411.214844 385.394531 410.90625 384.277344 410.566406 C 383.160156 410.226562 382.050781 409.859375 380.949219 409.46875 C 379.851562 409.074219 378.761719 408.652344 377.679688 408.207031 C 376.601562 407.757812 375.535156 407.285156 374.476562 406.785156 C 373.421875 406.285156 372.378906 405.761719 371.347656 405.210938 C 370.316406 404.660156 369.300781 404.085938 368.296875 403.484375 C 367.296875 402.882812 366.308594 402.257812 365.339844 401.609375 C 364.367188 400.960938 363.410156 400.289062 362.472656 399.589844 C 361.535156 398.894531 360.613281 398.175781 359.710938 397.433594 C 358.808594 396.695312 357.921875 395.929688 357.058594 395.148438 C 356.191406 394.363281 355.347656 393.558594 354.519531 392.730469 C 353.695312 391.90625 352.890625 391.058594 352.105469 390.191406 C 351.320312 389.328125 350.558594 388.441406 349.816406 387.539062 C 349.074219 386.636719 348.355469 385.714844 347.660156 384.777344 C 346.964844 383.839844 346.292969 382.882812 345.640625 381.914062 C 344.992188 380.941406 344.367188 379.953125 343.769531 378.953125 C 343.167969 377.949219 342.589844 376.933594 342.039062 375.902344 C 341.488281 374.875 340.964844 373.828125 340.464844 372.773438 C 339.964844 371.71875 339.492188 370.648438 339.046875 369.570312 C 338.597656 368.492188 338.175781 367.402344 337.785156 366.300781 C 337.390625 365.203125 337.023438 364.09375 336.683594 362.972656 C 336.347656 361.855469 336.035156 360.730469 335.75 359.597656 C 335.464844 358.464844 335.210938 357.324219 334.984375 356.179688 C 334.753906 355.03125 334.554688 353.882812 334.382812 352.726562 C 334.210938 351.570312 334.070312 350.410156 333.953125 349.25 C 333.839844 348.085938 333.753906 346.921875 333.695312 345.753906 C 333.640625 344.585938 333.609375 343.417969 333.609375 342.25 C 333.609375 341.082031 333.640625 339.914062 333.695312 338.75 C 333.753906 337.582031 333.839844 336.417969 333.953125 335.253906 C 334.070312 334.089844 334.210938 332.933594 334.382812 331.777344 C 334.554688 330.621094 334.753906 329.46875 334.984375 328.324219 C 335.210938 327.179688 335.464844 326.039062 335.75 324.90625 C 336.035156 323.773438 336.347656 322.644531 336.683594 321.527344 C 337.023438 320.410156 337.390625 319.300781 337.785156 318.199219 C 338.175781 317.101562 338.597656 316.011719 339.046875 314.933594 C 339.492188 313.851562 339.964844 312.785156 340.464844 311.726562 C 340.964844 310.671875 341.488281 309.628906 342.039062 308.597656 C 342.589844 307.566406 343.167969 306.550781 343.769531 305.550781 C 344.367188 304.546875 344.992188 303.5625 345.640625 302.589844 C 346.292969 301.617188 346.964844 300.664062 347.660156 299.726562 C 348.355469 298.785156 349.074219 297.867188 349.816406 296.960938 C 350.558594 296.058594 351.320312 295.175781 352.105469 294.308594 C 352.890625 293.445312 353.695312 292.597656 354.519531 291.769531 C 355.347656 290.945312 356.191406 290.140625 357.058594 289.355469 C 357.921875 288.570312 358.808594 287.808594 359.710938 287.066406 C 360.613281 286.324219 361.535156 285.605469 362.472656 284.910156 C 363.410156 284.214844 364.367188 283.542969 365.339844 282.894531 C 366.308594 282.246094 367.296875 281.621094 368.296875 281.019531 C 369.300781 280.417969 370.316406 279.84375 371.347656 279.292969 C 372.378906 278.742188 373.421875 278.214844 374.476562 277.714844 C 375.535156 277.214844 376.601562 276.742188 377.679688 276.296875 C 378.761719 275.847656 379.851562 275.429688 380.949219 275.035156 C 382.050781 274.640625 383.160156 274.273438 384.277344 273.9375 C 385.394531 273.597656 386.519531 273.285156 387.652344 273 C 388.789062 272.71875 389.925781 272.460938 391.074219 272.234375 C 392.21875 272.007812 393.371094 271.804688 394.523438 271.636719 C 395.679688 271.464844 396.839844 271.320312 398.003906 271.207031 C 399.164062 271.089844 400.332031 271.003906 401.496094 270.949219 C 402.664062 270.890625 403.832031 270.863281 405 270.863281 C 406.167969 270.863281 407.335938 270.890625 408.503906 270.949219 C 409.667969 271.003906 410.835938 271.089844 411.996094 271.207031 C 413.160156 271.320312 414.320312 271.464844 415.476562 271.636719 C 416.628906 271.804688 417.78125 272.007812 418.925781 272.234375 C 420.074219 272.460938 421.210938 272.71875 422.347656 273 C 423.480469 273.285156 424.605469 273.597656 425.722656 273.9375 C 426.839844 274.273438 427.949219 274.640625 429.050781 275.035156 C 430.148438 275.429688 431.238281 275.847656 432.320312 276.296875 C 433.398438 276.742188 434.464844 277.214844 435.523438 277.714844 C 436.578125 278.214844 437.621094 278.742188 438.652344 279.292969 C 439.683594 279.84375 440.699219 280.417969 441.703125 281.019531 C 442.703125 281.621094 443.691406 282.246094 444.660156 282.894531 C 445.632812 283.542969 446.589844 284.214844 447.527344 284.910156 C 448.464844 285.605469 449.386719 286.324219 450.289062 287.066406 C 451.191406 287.808594 452.074219 288.570312 452.941406 289.355469 C 453.808594 290.140625 454.652344 290.945312 455.480469 291.769531 C 456.304688 292.597656 457.109375 293.445312 457.894531 294.308594 C 458.679688 295.175781 459.441406 296.058594 460.183594 296.960938 C 460.925781 297.867188 461.644531 298.785156 462.339844 299.726562 C 463.035156 300.664062 463.707031 301.617188 464.359375 302.589844 C 465.007812 303.5625 465.632812 304.546875 466.230469 305.550781 C 466.832031 306.550781 467.410156 307.566406 467.960938 308.597656 C 468.511719 309.628906 469.035156 310.671875 469.535156 311.726562 C 470.035156 312.785156 470.507812 313.851562 470.953125 314.933594 C 471.402344 316.011719 471.820312 317.101562 472.214844 318.199219 C 472.609375 319.300781 472.976562 320.410156 473.316406 321.527344 C 473.652344 322.644531 473.964844 323.773438 474.25 324.90625 C 474.535156 326.039062 474.789062 327.179688 475.015625 328.324219 C 475.246094 329.46875 475.445312 330.621094 475.617188 331.777344 C 475.789062 332.933594 475.929688 334.089844 476.046875 335.253906 C 476.160156 336.417969 476.246094 337.582031 476.304688 338.75 C 476.359375 339.914062 476.390625 341.082031 476.390625 342.25 Z M 476.390625 342.25 " fill-opacity="1" fill-rule="nonzero"/><path fill="#ededed" d="M 666.757812 342.25 C 666.757812 343.417969 666.730469 344.585938 666.671875 345.753906 C 666.617188 346.921875 666.53125 348.085938 666.414062 349.25 C 666.300781 350.410156 666.15625 351.570312 665.988281 352.726562 C 665.816406 353.882812 665.617188 355.03125 665.386719 356.179688 C 665.160156 357.324219 664.902344 358.464844 664.621094 359.597656 C 664.335938 360.730469 664.023438 361.855469 663.683594 362.972656 C 663.347656 364.09375 662.980469 365.203125 662.585938 366.300781 C 662.191406 367.402344 661.773438 368.492188 661.324219 369.570312 C 660.878906 370.648438 660.40625 371.71875 659.90625 372.773438 C 659.40625 373.828125 658.878906 374.875 658.328125 375.902344 C 657.777344 376.933594 657.203125 377.949219 656.601562 378.953125 C 656.003906 379.953125 655.378906 380.941406 654.726562 381.914062 C 654.078125 382.882812 653.40625 383.839844 652.710938 384.777344 C 652.015625 385.714844 651.296875 386.636719 650.554688 387.539062 C 649.8125 388.441406 649.050781 389.328125 648.265625 390.191406 C 647.480469 391.058594 646.675781 391.90625 645.851562 392.730469 C 645.023438 393.558594 644.179688 394.363281 643.3125 395.148438 C 642.445312 395.929688 641.5625 396.695312 640.660156 397.433594 C 639.757812 398.175781 638.835938 398.894531 637.898438 399.589844 C 636.957031 400.289062 636.003906 400.960938 635.03125 401.609375 C 634.0625 402.257812 633.074219 402.882812 632.070312 403.484375 C 631.070312 404.085938 630.054688 404.660156 629.023438 405.210938 C 627.992188 405.761719 626.949219 406.285156 625.894531 406.785156 C 624.835938 407.285156 623.769531 407.757812 622.691406 408.207031 C 621.609375 408.652344 620.519531 409.074219 619.421875 409.46875 C 618.320312 409.859375 617.210938 410.226562 616.09375 410.566406 C 614.976562 410.90625 613.851562 411.214844 612.714844 411.5 C 611.582031 411.785156 610.445312 412.039062 609.296875 412.269531 C 608.152344 412.496094 607 412.695312 605.84375 412.867188 C 604.691406 413.039062 603.53125 413.183594 602.367188 413.296875 C 601.207031 413.410156 600.039062 413.496094 598.875 413.554688 C 597.707031 413.613281 596.539062 413.640625 595.371094 413.640625 C 594.203125 413.640625 593.035156 413.613281 591.867188 413.554688 C 590.699219 413.496094 589.535156 413.410156 588.375 413.296875 C 587.210938 413.183594 586.050781 413.039062 584.894531 412.867188 C 583.738281 412.695312 582.589844 412.496094 581.441406 412.269531 C 580.296875 412.039062 579.15625 411.785156 578.023438 411.5 C 576.890625 411.214844 575.765625 410.90625 574.648438 410.566406 C 573.53125 410.226562 572.421875 409.859375 571.320312 409.46875 C 570.21875 409.074219 569.128906 408.652344 568.050781 408.207031 C 566.972656 407.757812 565.902344 407.285156 564.847656 406.785156 C 563.792969 406.285156 562.75 405.761719 561.71875 405.210938 C 560.6875 404.660156 559.671875 404.085938 558.667969 403.484375 C 557.667969 402.882812 556.679688 402.257812 555.707031 401.609375 C 554.738281 400.960938 553.78125 400.289062 552.84375 399.589844 C 551.90625 398.894531 550.984375 398.175781 550.082031 397.433594 C 549.179688 396.695312 548.292969 395.929688 547.429688 395.148438 C 546.5625 394.363281 545.71875 393.558594 544.890625 392.730469 C 544.066406 391.90625 543.257812 391.058594 542.476562 390.191406 C 541.691406 389.328125 540.925781 388.441406 540.1875 387.539062 C 539.445312 386.636719 538.726562 385.714844 538.03125 384.777344 C 537.335938 383.839844 536.660156 382.882812 536.011719 381.914062 C 535.363281 380.941406 534.738281 379.953125 534.136719 378.953125 C 533.539062 377.949219 532.960938 376.933594 532.410156 375.902344 C 531.859375 374.875 531.335938 373.828125 530.835938 372.773438 C 530.335938 371.71875 529.863281 370.648438 529.414062 369.570312 C 528.96875 368.492188 528.546875 367.402344 528.15625 366.300781 C 527.761719 365.203125 527.394531 364.09375 527.054688 362.972656 C 526.714844 361.855469 526.40625 360.730469 526.121094 359.597656 C 525.835938 358.464844 525.582031 357.324219 525.351562 356.179688 C 525.125 355.03125 524.925781 353.882812 524.753906 352.726562 C 524.582031 351.570312 524.441406 350.410156 524.324219 349.25 C 524.210938 348.085938 524.125 346.921875 524.066406 345.753906 C 524.011719 344.585938 523.980469 343.417969 523.980469 342.25 C 523.980469 341.082031 524.011719 339.914062 524.066406 338.75 C 524.125 337.582031 524.210938 336.417969 524.324219 335.253906 C 524.441406 334.089844 524.582031 332.933594 524.753906 331.777344 C 524.925781 330.621094 525.125 329.46875 525.351562 328.324219 C 525.582031 327.179688 525.835938 326.039062 526.121094 324.90625 C 526.40625 323.773438 526.714844 322.644531 527.054688 321.527344 C 527.394531 320.410156 527.761719 319.300781 528.15625 318.199219 C 528.546875 317.101562 528.96875 316.011719 529.414062 314.933594 C 529.863281 313.851562 530.335938 312.785156 530.835938 311.726562 C 531.335938 310.671875 531.859375 309.628906 532.410156 308.597656 C 532.960938 307.566406 533.539062 306.550781 534.136719 305.550781 C 534.738281 304.546875 535.363281 303.5625 536.011719 302.589844 C 536.660156 301.617188 537.335938 300.664062 538.03125 299.726562 C 538.726562 298.785156 539.445312 297.867188 540.1875 296.960938 C 540.925781 296.058594 541.691406 295.175781 542.476562 294.308594 C 543.257812 293.445312 544.066406 292.597656 544.890625 291.769531 C 545.71875 290.945312 546.5625 290.140625 547.429688 289.355469 C 548.292969 288.570312 549.179688 287.808594 550.082031 287.066406 C 550.984375 286.324219 551.90625 285.605469 552.84375 284.910156 C 553.78125 284.214844 554.738281 283.542969 555.707031 282.894531 C 556.679688 282.246094 557.667969 281.621094 558.667969 281.019531 C 559.671875 280.417969 560.6875 279.84375 561.71875 279.292969 C 562.75 278.742188 563.792969 278.214844 564.847656 277.714844 C 565.902344 277.214844 566.972656 276.742188 568.050781 276.296875 C 569.128906 275.847656 570.21875 275.429688 571.320312 275.035156 C 572.421875 274.640625 573.53125 274.273438 574.648438 273.9375 C 575.765625 273.597656 576.890625 273.285156 578.023438 273 C 579.15625 272.71875 580.296875 272.460938 581.441406 272.234375 C 582.589844 272.007812 583.738281 271.804688 584.894531 271.636719 C 586.050781 271.464844 587.210938 271.320312 588.375 271.207031 C 589.535156 271.089844 590.699219 271.003906 591.867188 270.949219 C 593.035156 270.890625 594.203125 270.863281 595.371094 270.863281 C 596.539062 270.863281 597.707031 270.890625 598.875 270.949219 C 600.039062 271.003906 601.207031 271.089844 602.367188 271.207031 C 603.53125 271.320312 604.691406 271.464844 605.84375 271.636719 C 607 271.804688 608.152344 272.007812 609.296875 272.234375 C 610.445312 272.460938 611.582031 272.71875 612.714844 273 C 613.851562 273.285156 614.976562 273.597656 616.09375 273.9375 C 617.210938 274.273438 618.320312 274.640625 619.421875 275.035156 C 620.519531 275.429688 621.609375 275.847656 622.691406 276.296875 C 623.769531 276.742188 624.835938 277.214844 625.894531 277.714844 C 626.949219 278.214844 627.992188 278.742188 629.023438 279.292969 C 630.054688 279.84375 631.070312 280.417969 632.070312 281.019531 C 633.074219 281.621094 634.0625 282.246094 635.03125 282.894531 C 636.003906 283.542969 636.957031 284.214844 637.898438 284.910156 C 638.835938 285.605469 639.757812 286.324219 640.660156 287.066406 C 641.5625 287.808594 642.445312 288.570312 643.3125 289.355469 C 644.179688 290.140625 645.023438 290.945312 645.851562 291.769531 C 646.675781 292.597656 647.480469 293.445312 648.265625 294.308594 C 649.050781 295.175781 649.8125 296.058594 650.554688 296.960938 C 651.296875 297.867188 652.015625 298.785156 652.710938 299.726562 C 653.40625 300.664062 654.078125 301.617188 654.726562 302.589844 C 655.378906 303.5625 656.003906 304.546875 656.601562 305.550781 C 657.203125 306.550781 657.777344 307.566406 658.328125 308.597656 C 658.878906 309.628906 659.40625 310.671875 659.90625 311.726562 C 660.40625 312.785156 660.878906 313.851562 661.324219 314.933594 C 661.773438 316.011719 662.191406 317.101562 662.585938 318.199219 C 662.980469 319.300781 663.347656 320.410156 663.683594 321.527344 C 664.023438 322.644531 664.335938 323.773438 664.621094 324.90625 C 664.902344 326.039062 665.160156 327.179688 665.386719 328.324219 C 665.617188 329.46875 665.816406 330.621094 665.988281 331.777344 C 666.160156 332.933594 666.300781 334.089844 666.414062 335.253906 C 666.53125 336.417969 666.617188 337.582031 666.671875 338.75 C 666.730469 339.914062 666.757812 341.082031 666.757812 342.25 Z M 666.757812 342.25 " fill-opacity="1" fill-rule="nonzero"/><path fill="#ededed" d="M 286.019531 342.25 C 286.019531 343.417969 285.988281 344.585938 285.933594 345.753906 C 285.875 346.921875 285.789062 348.085938 285.675781 349.25 C 285.558594 350.410156 285.417969 351.570312 285.246094 352.726562 C 285.074219 353.882812 284.875 355.03125 284.648438 356.179688 C 284.417969 357.324219 284.164062 358.464844 283.878906 359.597656 C 283.59375 360.730469 283.285156 361.855469 282.945312 362.972656 C 282.605469 364.09375 282.238281 365.203125 281.84375 366.300781 C 281.453125 367.402344 281.03125 368.492188 280.585938 369.570312 C 280.136719 370.648438 279.664062 371.71875 279.164062 372.773438 C 278.664062 373.828125 278.140625 374.875 277.589844 375.902344 C 277.039062 376.933594 276.460938 377.949219 275.863281 378.953125 C 275.261719 379.953125 274.636719 380.941406 273.988281 381.914062 C 273.339844 382.882812 272.664062 383.839844 271.96875 384.777344 C 271.273438 385.714844 270.554688 386.636719 269.8125 387.539062 C 269.074219 388.441406 268.308594 389.328125 267.523438 390.191406 C 266.742188 391.058594 265.933594 391.90625 265.109375 392.730469 C 264.28125 393.558594 263.4375 394.363281 262.570312 395.148438 C 261.707031 395.929688 260.820312 396.695312 259.917969 397.433594 C 259.015625 398.175781 258.09375 398.894531 257.15625 399.589844 C 256.21875 400.289062 255.261719 400.960938 254.289062 401.609375 C 253.320312 402.257812 252.332031 402.882812 251.332031 403.484375 C 250.328125 404.085938 249.3125 404.660156 248.28125 405.210938 C 247.25 405.761719 246.207031 406.285156 245.152344 406.785156 C 244.097656 407.285156 243.027344 407.757812 241.949219 408.207031 C 240.871094 408.652344 239.78125 409.074219 238.679688 409.46875 C 237.578125 409.859375 236.46875 410.226562 235.351562 410.566406 C 234.234375 410.90625 233.109375 411.214844 231.976562 411.5 C 230.84375 411.785156 229.703125 412.039062 228.558594 412.269531 C 227.410156 412.496094 226.261719 412.695312 225.105469 412.867188 C 223.949219 413.039062 222.789062 413.183594 221.625 413.296875 C 220.464844 413.410156 219.300781 413.496094 218.132812 413.554688 C 216.964844 413.613281 215.796875 413.640625 214.628906 413.640625 C 213.460938 413.640625 212.292969 413.613281 211.125 413.554688 C 209.960938 413.496094 208.792969 413.410156 207.632812 413.296875 C 206.46875 413.183594 205.308594 413.039062 204.15625 412.867188 C 203 412.695312 201.847656 412.496094 200.703125 412.269531 C 199.554688 412.039062 198.417969 411.785156 197.285156 411.5 C 196.148438 411.214844 195.023438 410.90625 193.90625 410.566406 C 192.789062 410.226562 191.679688 409.859375 190.578125 409.46875 C 189.480469 409.074219 188.390625 408.652344 187.308594 408.207031 C 186.230469 407.757812 185.164062 407.285156 184.105469 406.785156 C 183.050781 406.285156 182.007812 405.761719 180.976562 405.210938 C 179.945312 404.660156 178.929688 404.085938 177.929688 403.484375 C 176.925781 402.882812 175.9375 402.257812 174.96875 401.609375 C 173.996094 400.960938 173.042969 400.289062 172.101562 399.589844 C 171.164062 398.894531 170.242188 398.175781 169.339844 397.433594 C 168.4375 396.695312 167.554688 395.929688 166.6875 395.148438 C 165.820312 394.363281 164.976562 393.558594 164.148438 392.730469 C 163.324219 391.90625 162.519531 391.058594 161.734375 390.191406 C 160.949219 389.328125 160.1875 388.441406 159.445312 387.539062 C 158.703125 386.636719 157.984375 385.714844 157.289062 384.777344 C 156.59375 383.839844 155.921875 382.882812 155.273438 381.914062 C 154.621094 380.941406 153.996094 379.953125 153.398438 378.953125 C 152.796875 377.949219 152.222656 376.933594 151.671875 375.902344 C 151.121094 374.875 150.59375 373.828125 150.09375 372.773438 C 149.59375 371.71875 149.121094 370.648438 148.675781 369.570312 C 148.226562 368.492188 147.808594 367.402344 147.414062 366.300781 C 147.019531 365.203125 146.652344 364.09375 146.3125 362.972656 C 145.976562 361.855469 145.664062 360.730469 145.378906 359.597656 C 145.097656 358.464844 144.839844 357.324219 144.613281 356.179688 C 144.382812 355.03125 144.183594 353.882812 144.011719 352.726562 C 143.839844 351.570312 143.699219 350.410156 143.585938 349.25 C 143.46875 348.085938 143.382812 346.921875 143.328125 345.753906 C 143.269531 344.585938 143.242188 343.417969 143.242188 342.25 C 143.242188 341.082031 143.269531 339.914062 143.328125 338.75 C 143.382812 337.582031 143.46875 336.417969 143.585938 335.253906 C 143.699219 334.089844 143.839844 332.933594 144.011719 331.777344 C 144.183594 330.621094 144.382812 329.46875 144.613281 328.324219 C 144.839844 327.179688 145.097656 326.039062 145.378906 324.90625 C 145.664062 323.773438 145.976562 322.644531 146.3125 321.527344 C 146.652344 320.410156 147.019531 319.300781 147.414062 318.199219 C 147.808594 317.101562 148.226562 316.011719 148.675781 314.933594 C 149.121094 313.851562 149.59375 312.785156 150.09375 311.726562 C 150.59375 310.671875 151.121094 309.628906 151.671875 308.597656 C 152.21875 307.566406 152.796875 306.550781 153.398438 305.550781 C 153.996094 304.546875 154.621094 303.5625 155.273438 302.589844 C 155.921875 301.617188 156.59375 300.664062 157.289062 299.726562 C 157.984375 298.785156 158.703125 297.867188 159.445312 296.960938 C 160.1875 296.058594 160.949219 295.175781 161.734375 294.308594 C 162.519531 293.445312 163.324219 292.597656 164.148438 291.769531 C 164.976562 290.945312 165.820312 290.140625 166.6875 289.355469 C 167.554688 288.570312 168.4375 287.808594 169.339844 287.066406 C 170.242188 286.324219 171.164062 285.605469 172.101562 284.910156 C 173.042969 284.214844 173.996094 283.542969 174.96875 282.894531 C 175.9375 282.246094 176.925781 281.621094 177.929688 281.019531 C 178.929688 280.417969 179.945312 279.84375 180.976562 279.292969 C 182.007812 278.742188 183.050781 278.214844 184.105469 277.714844 C 185.164062 277.214844 186.230469 276.742188 187.308594 276.296875 C 188.390625 275.847656 189.480469 275.429688 190.578125 275.035156 C 191.679688 274.640625 192.789062 274.273438 193.90625 273.9375 C 195.023438 273.597656 196.148438 273.285156 197.285156 273 C 198.417969 272.71875 199.554688 272.460938 200.703125 272.234375 C 201.847656 272.007812 203 271.804688 204.15625 271.636719 C 205.308594 271.464844 206.46875 271.320312 207.632812 271.207031 C 208.792969 271.089844 209.960938 271.003906 211.125 270.949219 C 212.292969 270.890625 213.460938 270.863281 214.628906 270.863281 C 215.796875 270.863281 216.964844 270.890625 218.132812 270.949219 C 219.300781 271.003906 220.464844 271.089844 221.625 271.207031 C 222.789062 271.320312 223.949219 271.464844 225.105469 271.636719 C 226.261719 271.804688 227.410156 272.007812 228.558594 272.234375 C 229.703125 272.460938 230.84375 272.71875 231.976562 273 C 233.109375 273.285156 234.234375 273.597656 235.351562 273.9375 C 236.46875 274.273438 237.578125 274.640625 238.679688 275.035156 C 239.78125 275.429688 240.871094 275.847656 241.949219 276.296875 C 243.027344 276.742188 244.097656 277.214844 245.152344 277.714844 C 246.207031 278.214844 247.25 278.742188 248.28125 279.292969 C 249.3125 279.84375 250.328125 280.417969 251.332031 281.019531 C 252.332031 281.621094 253.320312 282.246094 254.289062 282.894531 C 255.261719 283.542969 256.21875 284.214844 257.15625 284.910156 C 258.09375 285.605469 259.015625 286.324219 259.917969 287.066406 C 260.820312 287.808594 261.707031 288.570312 262.570312 289.355469 C 263.4375 290.140625 264.28125 290.945312 265.109375 291.769531 C 265.933594 292.597656 266.742188 293.445312 267.523438 294.308594 C 268.308594 295.175781 269.074219 296.058594 269.8125 296.960938 C 270.554688 297.867188 271.273438 298.785156 271.96875 299.726562 C 272.664062 300.664062 273.339844 301.617188 273.988281 302.589844 C 274.636719 303.5625 275.261719 304.546875 275.863281 305.550781 C 276.460938 306.550781 277.039062 307.566406 277.589844 308.597656 C 278.140625 309.628906 278.664062 310.671875 279.164062 311.726562 C 279.664062 312.785156 280.136719 313.851562 280.585938 314.933594 C 281.03125 316.011719 281.453125 317.101562 281.84375 318.199219 C 282.238281 319.300781 282.605469 320.410156 282.945312 321.527344 C 283.285156 322.644531 283.59375 323.773438 283.878906 324.90625 C 284.164062 326.039062 284.417969 327.179688 284.648438 328.324219 C 284.875 329.46875 285.074219 330.621094 285.246094 331.777344 C 285.417969 332.933594 285.558594 334.089844 285.675781 335.253906 C 285.789062 336.417969 285.875 337.582031 285.933594 338.75 C 285.988281 339.914062 286.019531 341.082031 286.019531 342.25 Z M 286.019531 342.25 " fill-opacity="1" fill-rule="nonzero"/><g clip-path="url(#f621046b11)"><path fill="#ededed" d="M 677.863281 56.695312 L 132.136719 56.695312 C 59.53125 56.695312 0.460938 115.761719 0.460938 188.367188 L 0.460938 496.132812 C 0.460938 568.738281 59.53125 627.808594 132.136719 627.808594 L 214.628906 627.808594 L 214.628906 722.992188 C 214.628906 742.089844 235.976562 753.230469 251.625 742.789062 L 424.105469 627.808594 L 677.863281 627.808594 C 750.46875 627.808594 809.539062 568.738281 809.539062 496.132812 L 809.539062 188.367188 C 809.539062 115.765625 750.46875 56.695312 677.863281 56.695312 Z M 761.945312 496.132812 C 761.945312 542.496094 724.226562 580.214844 677.863281 580.214844 L 416.898438 580.214844 C 412.199219 580.214844 407.609375 581.605469 403.699219 584.210938 L 262.222656 678.53125 L 262.222656 604.011719 C 262.222656 590.867188 251.566406 580.214844 238.425781 580.214844 L 132.136719 580.214844 C 85.773438 580.214844 48.054688 542.496094 48.054688 496.132812 L 48.054688 188.367188 C 48.054688 142.003906 85.773438 104.289062 132.136719 104.289062 L 677.863281 104.289062 C 724.226562 104.289062 761.945312 142.003906 761.945312 188.367188 Z M 761.945312 496.132812 " fill-opacity="1" fill-rule="nonzero"/></g></svg>