<svg xmlns="http://www.w3.org/2000/svg" xmlns:xlink="http://www.w3.org/1999/xlink" width="1080" zoomAndPan="magnify" viewBox="0 0 810 809.999993" height="1080" preserveAspectRatio="xMidYMid meet" version="1.0"><path fill="#ededed" d="M 461.570312 405 C 461.570312 406.851562 461.480469 408.699219 461.296875 410.542969 C 461.117188 412.386719 460.84375 414.21875 460.484375 416.035156 C 460.121094 417.851562 459.671875 419.648438 459.132812 421.421875 C 458.597656 423.195312 457.972656 424.9375 457.265625 426.648438 C 456.554688 428.359375 455.761719 430.03125 454.890625 431.667969 C 454.015625 433.300781 453.066406 434.886719 452.035156 436.429688 C 451.007812 437.96875 449.90625 439.457031 448.730469 440.886719 C 447.554688 442.320312 446.3125 443.691406 445 445 C 443.691406 446.3125 442.320312 447.554688 440.886719 448.730469 C 439.457031 449.90625 437.96875 451.007812 436.429688 452.035156 C 434.886719 453.066406 433.300781 454.015625 431.667969 454.890625 C 430.03125 455.761719 428.359375 456.554688 426.648438 457.265625 C 424.9375 457.972656 423.195312 458.597656 421.421875 459.132812 C 419.648438 459.671875 417.851562 460.121094 416.035156 460.484375 C 414.21875 460.84375 412.386719 461.117188 410.542969 461.296875 C 408.699219 461.480469 406.851562 461.570312 405 461.570312 C 403.148438 461.570312 401.300781 461.480469 399.457031 461.296875 C 397.609375 461.117188 395.78125 460.84375 393.964844 460.484375 C 392.148438 460.121094 390.351562 459.671875 388.578125 459.132812 C 386.804688 458.597656 385.0625 457.972656 383.351562 457.265625 C 381.640625 456.554688 379.96875 455.761719 378.332031 454.890625 C 376.699219 454.015625 375.113281 453.066406 373.570312 452.035156 C 372.03125 451.007812 370.542969 449.90625 369.113281 448.730469 C 367.679688 447.554688 366.308594 446.3125 365 445 C 363.6875 443.691406 362.445312 442.320312 361.269531 440.886719 C 360.09375 439.457031 358.992188 437.96875 357.964844 436.429688 C 356.933594 434.886719 355.984375 433.300781 355.109375 431.667969 C 354.238281 430.03125 353.445312 428.359375 352.734375 426.648438 C 352.027344 424.9375 351.402344 423.195312 350.867188 421.421875 C 350.328125 419.648438 349.878906 417.851562 349.515625 416.035156 C 349.15625 414.21875 348.882812 412.386719 348.703125 410.542969 C 348.519531 408.699219 348.429688 406.851562 348.429688 405 C 348.429688 403.148438 348.519531 401.300781 348.703125 399.457031 C 348.882812 397.613281 349.15625 395.78125 349.515625 393.964844 C 349.878906 392.148438 350.328125 390.351562 350.867188 388.578125 C 351.402344 386.804688 352.027344 385.0625 352.734375 383.351562 C 353.445312 381.640625 354.238281 379.96875 355.109375 378.332031 C 355.984375 376.699219 356.933594 375.113281 357.964844 373.570312 C 358.992188 372.03125 360.09375 370.542969 361.269531 369.113281 C 362.445312 367.679688 363.6875 366.308594 365 365 C 366.308594 363.6875 367.679688 362.445312 369.113281 361.269531 C 370.542969 360.09375 372.03125 358.992188 373.570312 357.964844 C 375.113281 356.933594 376.699219 355.984375 378.332031 355.109375 C 379.96875 354.238281 381.640625 353.445312 383.351562 352.734375 C 385.0625 352.027344 386.804688 351.402344 388.578125 350.867188 C 390.351562 350.328125 392.148438 349.878906 393.964844 349.515625 C 395.78125 349.15625 397.609375 348.882812 399.457031 348.703125 C 401.300781 348.519531 403.148438 348.429688 405 348.429688 C 406.851562 348.429688 408.699219 348.519531 410.542969 348.703125 C 412.386719 348.882812 414.21875 349.15625 416.035156 349.515625 C 417.851562 349.878906 419.648438 350.328125 421.421875 350.867188 C 423.195312 351.402344 424.9375 352.027344 426.648438 352.734375 C 428.359375 353.445312 430.03125 354.238281 431.667969 355.109375 C 433.300781 355.984375 434.886719 356.933594 436.429688 357.964844 C 437.96875 358.992188 439.457031 360.09375 440.886719 361.269531 C 442.320312 362.445312 443.691406 363.6875 445 365 C 446.3125 366.308594 447.554688 367.679688 448.730469 369.113281 C 449.90625 370.542969 451.007812 372.03125 452.035156 373.570312 C 453.066406 375.113281 454.015625 376.699219 454.890625 378.332031 C 455.761719 379.96875 456.554688 381.640625 457.265625 383.351562 C 457.972656 385.0625 458.597656 386.804688 459.132812 388.578125 C 459.671875 390.351562 460.121094 392.148438 460.484375 393.964844 C 460.84375 395.78125 461.117188 397.613281 461.296875 399.457031 C 461.480469 401.300781 461.570312 403.148438 461.570312 405 Z M 461.570312 405 " fill-opacity="1" fill-rule="nonzero"/><path fill="#ededed" d="M 259.058594 405 C 259.058594 406.851562 258.964844 408.699219 258.785156 410.542969 C 258.601562 412.386719 258.332031 414.21875 257.96875 416.035156 C 257.609375 417.851562 257.160156 419.648438 256.621094 421.421875 C 256.082031 423.195312 255.460938 424.9375 254.75 426.648438 C 254.042969 428.359375 253.25 430.03125 252.378906 431.667969 C 251.503906 433.300781 250.550781 434.886719 249.523438 436.429688 C 248.492188 437.96875 247.390625 439.457031 246.214844 440.886719 C 245.039062 442.320312 243.796875 443.691406 242.488281 445 C 241.179688 446.3125 239.808594 447.554688 238.375 448.730469 C 236.941406 449.90625 235.457031 451.007812 233.914062 452.035156 C 232.375 453.066406 230.789062 454.015625 229.152344 454.890625 C 227.519531 455.761719 225.847656 456.554688 224.136719 457.265625 C 222.421875 457.972656 220.679688 458.597656 218.910156 459.132812 C 217.136719 459.671875 215.339844 460.121094 213.523438 460.484375 C 211.707031 460.84375 209.875 461.117188 208.03125 461.296875 C 206.1875 461.480469 204.339844 461.570312 202.488281 461.570312 C 200.632812 461.570312 198.785156 461.480469 196.941406 461.296875 C 195.097656 461.117188 193.269531 460.84375 191.449219 460.484375 C 189.632812 460.121094 187.839844 459.671875 186.066406 459.132812 C 184.292969 458.597656 182.550781 457.972656 180.839844 457.265625 C 179.125 456.554688 177.453125 455.761719 175.820312 454.890625 C 174.1875 454.015625 172.597656 453.066406 171.058594 452.035156 C 169.519531 451.007812 168.03125 449.90625 166.597656 448.730469 C 165.167969 447.554688 163.796875 446.3125 162.484375 445 C 161.175781 443.691406 159.933594 442.320312 158.757812 440.886719 C 157.582031 439.457031 156.480469 437.96875 155.449219 436.429688 C 154.421875 434.886719 153.46875 433.300781 152.597656 431.667969 C 151.722656 430.03125 150.933594 428.359375 150.222656 426.648438 C 149.515625 424.9375 148.890625 423.195312 148.351562 421.421875 C 147.816406 419.648438 147.367188 417.851562 147.003906 416.035156 C 146.640625 414.21875 146.371094 412.386719 146.191406 410.542969 C 146.007812 408.699219 145.917969 406.851562 145.917969 405 C 145.917969 403.148438 146.007812 401.300781 146.191406 399.457031 C 146.371094 397.613281 146.640625 395.78125 147.003906 393.964844 C 147.367188 392.148438 147.816406 390.351562 148.351562 388.578125 C 148.890625 386.804688 149.515625 385.0625 150.222656 383.351562 C 150.933594 381.640625 151.722656 379.96875 152.597656 378.332031 C 153.46875 376.699219 154.421875 375.113281 155.449219 373.570312 C 156.480469 372.03125 157.582031 370.542969 158.757812 369.113281 C 159.933594 367.679688 161.175781 366.308594 162.484375 365 C 163.796875 363.6875 165.167969 362.445312 166.597656 361.269531 C 168.03125 360.09375 169.519531 358.992188 171.058594 357.964844 C 172.597656 356.933594 174.1875 355.984375 175.820312 355.109375 C 177.453125 354.238281 179.125 353.445312 180.839844 352.734375 C 182.550781 352.027344 184.292969 351.402344 186.066406 350.867188 C 187.839844 350.328125 189.632812 349.878906 191.449219 349.515625 C 193.269531 349.15625 195.097656 348.882812 196.941406 348.703125 C 198.785156 348.519531 200.632812 348.429688 202.488281 348.429688 C 204.339844 348.429688 206.1875 348.519531 208.03125 348.703125 C 209.875 348.882812 211.707031 349.15625 213.523438 349.515625 C 215.339844 349.878906 217.136719 350.328125 218.910156 350.867188 C 220.679688 351.402344 222.421875 352.027344 224.136719 352.734375 C 225.847656 353.445312 227.519531 354.238281 229.152344 355.109375 C 230.789062 355.984375 232.375 356.933594 233.914062 357.964844 C 235.457031 358.992188 236.941406 360.09375 238.375 361.269531 C 239.808594 362.445312 241.179688 363.6875 242.488281 365 C 243.796875 366.308594 245.039062 367.679688 246.214844 369.113281 C 247.390625 370.542969 248.492188 372.03125 249.523438 373.570312 C 250.550781 375.113281 251.503906 376.699219 252.378906 378.332031 C 253.25 379.96875 254.042969 381.640625 254.75 383.351562 C 255.460938 385.0625 256.082031 386.804688 256.621094 388.578125 C 257.160156 390.351562 257.609375 392.148438 257.96875 393.964844 C 258.332031 395.78125 258.601562 397.613281 258.785156 399.457031 C 258.964844 401.300781 259.058594 403.148438 259.058594 405 Z M 259.058594 405 " fill-opacity="1" fill-rule="nonzero"/><path fill="#ededed" d="M 664.082031 405 C 664.082031 406.851562 663.992188 408.699219 663.808594 410.542969 C 663.628906 412.386719 663.355469 414.21875 662.996094 416.035156 C 662.632812 417.851562 662.183594 419.648438 661.648438 421.421875 C 661.109375 423.195312 660.484375 424.9375 659.777344 426.648438 C 659.066406 428.359375 658.277344 430.03125 657.402344 431.667969 C 656.53125 433.300781 655.578125 434.886719 654.550781 436.429688 C 653.519531 437.96875 652.417969 439.457031 651.242188 440.886719 C 650.066406 442.320312 648.824219 443.691406 647.515625 445 C 646.203125 446.3125 644.832031 447.554688 643.402344 448.730469 C 641.96875 449.90625 640.480469 451.007812 638.941406 452.035156 C 637.402344 453.066406 635.8125 454.015625 634.179688 454.890625 C 632.546875 455.761719 630.871094 456.554688 629.160156 457.265625 C 627.449219 457.972656 625.707031 458.597656 623.933594 459.132812 C 622.160156 459.671875 620.367188 460.121094 618.550781 460.484375 C 616.730469 460.84375 614.902344 461.117188 613.058594 461.296875 C 611.214844 461.480469 609.367188 461.570312 607.511719 461.570312 C 605.660156 461.570312 603.8125 461.480469 601.96875 461.296875 C 600.125 461.117188 598.292969 460.84375 596.476562 460.484375 C 594.660156 460.121094 592.863281 459.671875 591.089844 459.132812 C 589.320312 458.597656 587.578125 457.972656 585.863281 457.265625 C 584.152344 456.554688 582.480469 455.761719 580.847656 454.890625 C 579.210938 454.015625 577.625 453.066406 576.085938 452.035156 C 574.542969 451.007812 573.058594 449.90625 571.625 448.730469 C 570.191406 447.554688 568.820312 446.3125 567.511719 445 C 566.203125 443.691406 564.960938 442.320312 563.785156 440.886719 C 562.609375 439.457031 561.507812 437.96875 560.476562 436.429688 C 559.449219 434.886719 558.496094 433.300781 557.621094 431.667969 C 556.75 430.03125 555.957031 428.359375 555.25 426.648438 C 554.539062 424.9375 553.917969 423.195312 553.378906 421.421875 C 552.839844 419.648438 552.390625 417.851562 552.03125 416.035156 C 551.667969 414.21875 551.398438 412.386719 551.214844 410.542969 C 551.035156 408.699219 550.941406 406.851562 550.941406 405 C 550.941406 403.148438 551.035156 401.300781 551.214844 399.457031 C 551.398438 397.613281 551.667969 395.78125 552.03125 393.964844 C 552.390625 392.148438 552.839844 390.351562 553.378906 388.578125 C 553.917969 386.804688 554.539062 385.0625 555.25 383.351562 C 555.957031 381.640625 556.75 379.96875 557.621094 378.332031 C 558.496094 376.699219 559.449219 375.113281 560.476562 373.570312 C 561.507812 372.03125 562.609375 370.542969 563.785156 369.113281 C 564.960938 367.679688 566.203125 366.308594 567.511719 365 C 568.820312 363.6875 570.191406 362.445312 571.625 361.269531 C 573.058594 360.09375 574.542969 358.992188 576.085938 357.964844 C 577.625 356.933594 579.210938 355.984375 580.847656 355.109375 C 582.480469 354.238281 584.152344 353.445312 585.863281 352.734375 C 587.578125 352.027344 589.320312 351.402344 591.089844 350.867188 C 592.863281 350.328125 594.660156 349.878906 596.476562 349.515625 C 598.292969 349.15625 600.125 348.882812 601.96875 348.703125 C 603.8125 348.519531 605.660156 348.429688 607.511719 348.429688 C 609.367188 348.429688 611.214844 348.519531 613.058594 348.703125 C 614.902344 348.882812 616.730469 349.15625 618.550781 349.515625 C 620.367188 349.878906 622.160156 350.328125 623.933594 350.867188 C 625.707031 351.402344 627.449219 352.027344 629.160156 352.734375 C 630.871094 353.445312 632.546875 354.238281 634.179688 355.109375 C 635.8125 355.984375 637.402344 356.933594 638.941406 357.964844 C 640.480469 358.992188 641.96875 360.09375 643.402344 361.269531 C 644.832031 362.445312 646.203125 363.6875 647.515625 365 C 648.824219 366.308594 650.066406 367.679688 651.242188 369.113281 C 652.417969 370.542969 653.519531 372.03125 654.550781 373.570312 C 655.578125 375.113281 656.53125 376.699219 657.402344 378.332031 C 658.277344 379.96875 659.066406 381.640625 659.777344 383.351562 C 660.484375 385.0625 661.109375 386.804688 661.648438 388.578125 C 662.183594 390.351562 662.632812 392.148438 662.996094 393.964844 C 663.355469 395.78125 663.628906 397.613281 663.808594 399.457031 C 663.992188 401.300781 664.082031 403.148438 664.082031 405 Z M 664.082031 405 " fill-opacity="1" fill-rule="nonzero"/><path fill="#ededed" d="M 405 809.90625 C 181.734375 809.90625 0.09375 628.261719 0.09375 405 C 0.09375 181.734375 181.734375 0.09375 405 0.09375 C 628.261719 0.09375 809.90625 181.734375 809.90625 405 C 809.90625 628.265625 628.265625 809.90625 405 809.90625 Z M 405 43.457031 C 205.644531 43.457031 43.457031 205.644531 43.457031 405 C 43.457031 604.355469 205.644531 766.542969 405 766.542969 C 604.355469 766.542969 766.542969 604.355469 766.542969 405 C 766.542969 205.644531 604.355469 43.457031 405 43.457031 Z M 405 43.457031 " fill-opacity="1" fill-rule="nonzero"/><path fill="#ededed" d="M 461.570312 405 C 461.570312 406.851562 461.480469 408.699219 461.296875 410.542969 C 461.117188 412.386719 460.84375 414.21875 460.484375 416.035156 C 460.121094 417.851562 459.671875 419.648438 459.132812 421.421875 C 458.597656 423.195312 457.972656 424.9375 457.265625 426.648438 C 456.554688 428.359375 455.761719 430.03125 454.890625 431.667969 C 454.015625 433.300781 453.066406 434.886719 452.035156 436.429688 C 451.007812 437.96875 449.90625 439.457031 448.730469 440.886719 C 447.554688 442.320312 446.3125 443.691406 445 445 C 443.691406 446.3125 442.320312 447.554688 440.886719 448.730469 C 439.457031 449.90625 437.96875 451.007812 436.429688 452.035156 C 434.886719 453.066406 433.300781 454.015625 431.667969 454.890625 C 430.03125 455.761719 428.359375 456.554688 426.648438 457.265625 C 424.9375 457.972656 423.195312 458.597656 421.421875 459.132812 C 419.648438 459.671875 417.851562 460.121094 416.035156 460.484375 C 414.21875 460.84375 412.386719 461.117188 410.542969 461.296875 C 408.699219 461.480469 406.851562 461.570312 405 461.570312 C 403.148438 461.570312 401.300781 461.480469 399.457031 461.296875 C 397.609375 461.117188 395.78125 460.84375 393.964844 460.484375 C 392.148438 460.121094 390.351562 459.671875 388.578125 459.132812 C 386.804688 458.597656 385.0625 457.972656 383.351562 457.265625 C 381.640625 456.554688 379.96875 455.761719 378.332031 454.890625 C 376.699219 454.015625 375.113281 453.066406 373.570312 452.035156 C 372.03125 451.007812 370.542969 449.90625 369.113281 448.730469 C 367.679688 447.554688 366.308594 446.3125 365 445 C 363.6875 443.691406 362.445312 442.320312 361.269531 440.886719 C 360.09375 439.457031 358.992188 437.96875 357.964844 436.429688 C 356.933594 434.886719 355.984375 433.300781 355.109375 431.667969 C 354.238281 430.03125 353.445312 428.359375 352.734375 426.648438 C 352.027344 424.9375 351.402344 423.195312 350.867188 421.421875 C 350.328125 419.648438 349.878906 417.851562 349.515625 416.035156 C 349.15625 414.21875 348.882812 412.386719 348.703125 410.542969 C 348.519531 408.699219 348.429688 406.851562 348.429688 405 C 348.429688 403.148438 348.519531 401.300781 348.703125 399.457031 C 348.882812 397.613281 349.15625 395.78125 349.515625 393.964844 C 349.878906 392.148438 350.328125 390.351562 350.867188 388.578125 C 351.402344 386.804688 352.027344 385.0625 352.734375 383.351562 C 353.445312 381.640625 354.238281 379.96875 355.109375 378.332031 C 355.984375 376.699219 356.933594 375.113281 357.964844 373.570312 C 358.992188 372.03125 360.09375 370.542969 361.269531 369.113281 C 362.445312 367.679688 363.6875 366.308594 365 365 C 366.308594 363.6875 367.679688 362.445312 369.113281 361.269531 C 370.542969 360.09375 372.03125 358.992188 373.570312 357.964844 C 375.113281 356.933594 376.699219 355.984375 378.332031 355.109375 C 379.96875 354.238281 381.640625 353.445312 383.351562 352.734375 C 385.0625 352.027344 386.804688 351.402344 388.578125 350.867188 C 390.351562 350.328125 392.148438 349.878906 393.964844 349.515625 C 395.78125 349.15625 397.609375 348.882812 399.457031 348.703125 C 401.300781 348.519531 403.148438 348.429688 405 348.429688 C 406.851562 348.429688 408.699219 348.519531 410.542969 348.703125 C 412.386719 348.882812 414.21875 349.15625 416.035156 349.515625 C 417.851562 349.878906 419.648438 350.328125 421.421875 350.867188 C 423.195312 351.402344 424.9375 352.027344 426.648438 352.734375 C 428.359375 353.445312 430.03125 354.238281 431.667969 355.109375 C 433.300781 355.984375 434.886719 356.933594 436.429688 357.964844 C 437.96875 358.992188 439.457031 360.09375 440.886719 361.269531 C 442.320312 362.445312 443.691406 363.6875 445 365 C 446.3125 366.308594 447.554688 367.679688 448.730469 369.113281 C 449.90625 370.542969 451.007812 372.03125 452.035156 373.570312 C 453.066406 375.113281 454.015625 376.699219 454.890625 378.332031 C 455.761719 379.96875 456.554688 381.640625 457.265625 383.351562 C 457.972656 385.0625 458.597656 386.804688 459.132812 388.578125 C 459.671875 390.351562 460.121094 392.148438 460.484375 393.964844 C 460.84375 395.78125 461.117188 397.613281 461.296875 399.457031 C 461.480469 401.300781 461.570312 403.148438 461.570312 405 Z M 461.570312 405 " fill-opacity="1" fill-rule="nonzero"/><path fill="#ededed" d="M 259.058594 405 C 259.058594 406.851562 258.964844 408.699219 258.785156 410.542969 C 258.601562 412.386719 258.332031 414.21875 257.96875 416.035156 C 257.609375 417.851562 257.160156 419.648438 256.621094 421.421875 C 256.082031 423.195312 255.460938 424.9375 254.75 426.648438 C 254.042969 428.359375 253.25 430.03125 252.378906 431.667969 C 251.503906 433.300781 250.550781 434.886719 249.523438 436.429688 C 248.492188 437.96875 247.390625 439.457031 246.214844 440.886719 C 245.039062 442.320312 243.796875 443.691406 242.488281 445 C 241.179688 446.3125 239.808594 447.554688 238.375 448.730469 C 236.941406 449.90625 235.457031 451.007812 233.914062 452.035156 C 232.375 453.066406 230.789062 454.015625 229.152344 454.890625 C 227.519531 455.761719 225.847656 456.554688 224.136719 457.265625 C 222.421875 457.972656 220.679688 458.597656 218.910156 459.132812 C 217.136719 459.671875 215.339844 460.121094 213.523438 460.484375 C 211.707031 460.84375 209.875 461.117188 208.03125 461.296875 C 206.1875 461.480469 204.339844 461.570312 202.488281 461.570312 C 200.632812 461.570312 198.785156 461.480469 196.941406 461.296875 C 195.097656 461.117188 193.269531 460.84375 191.449219 460.484375 C 189.632812 460.121094 187.839844 459.671875 186.066406 459.132812 C 184.292969 458.597656 182.550781 457.972656 180.839844 457.265625 C 179.125 456.554688 177.453125 455.761719 175.820312 454.890625 C 174.1875 454.015625 172.597656 453.066406 171.058594 452.035156 C 169.519531 451.007812 168.03125 449.90625 166.597656 448.730469 C 165.167969 447.554688 163.796875 446.3125 162.484375 445 C 161.175781 443.691406 159.933594 442.320312 158.757812 440.886719 C 157.582031 439.457031 156.480469 437.96875 155.449219 436.429688 C 154.421875 434.886719 153.46875 433.300781 152.597656 431.667969 C 151.722656 430.03125 150.933594 428.359375 150.222656 426.648438 C 149.515625 424.9375 148.890625 423.195312 148.351562 421.421875 C 147.816406 419.648438 147.367188 417.851562 147.003906 416.035156 C 146.640625 414.21875 146.371094 412.386719 146.191406 410.542969 C 146.007812 408.699219 145.917969 406.851562 145.917969 405 C 145.917969 403.148438 146.007812 401.300781 146.191406 399.457031 C 146.371094 397.613281 146.640625 395.78125 147.003906 393.964844 C 147.367188 392.148438 147.816406 390.351562 148.351562 388.578125 C 148.890625 386.804688 149.515625 385.0625 150.222656 383.351562 C 150.933594 381.640625 151.722656 379.96875 152.597656 378.332031 C 153.46875 376.699219 154.421875 375.113281 155.449219 373.570312 C 156.480469 372.03125 157.582031 370.542969 158.757812 369.113281 C 159.933594 367.679688 161.175781 366.308594 162.484375 365 C 163.796875 363.6875 165.167969 362.445312 166.597656 361.269531 C 168.03125 360.09375 169.519531 358.992188 171.058594 357.964844 C 172.597656 356.933594 174.1875 355.984375 175.820312 355.109375 C 177.453125 354.238281 179.125 353.445312 180.839844 352.734375 C 182.550781 352.027344 184.292969 351.402344 186.066406 350.867188 C 187.839844 350.328125 189.632812 349.878906 191.449219 349.515625 C 193.269531 349.15625 195.097656 348.882812 196.941406 348.703125 C 198.785156 348.519531 200.632812 348.429688 202.488281 348.429688 C 204.339844 348.429688 206.1875 348.519531 208.03125 348.703125 C 209.875 348.882812 211.707031 349.15625 213.523438 349.515625 C 215.339844 349.878906 217.136719 350.328125 218.910156 350.867188 C 220.679688 351.402344 222.421875 352.027344 224.136719 352.734375 C 225.847656 353.445312 227.519531 354.238281 229.152344 355.109375 C 230.789062 355.984375 232.375 356.933594 233.914062 357.964844 C 235.457031 358.992188 236.941406 360.09375 238.375 361.269531 C 239.808594 362.445312 241.179688 363.6875 242.488281 365 C 243.796875 366.308594 245.039062 367.679688 246.214844 369.113281 C 247.390625 370.542969 248.492188 372.03125 249.523438 373.570312 C 250.550781 375.113281 251.503906 376.699219 252.378906 378.332031 C 253.25 379.96875 254.042969 381.640625 254.75 383.351562 C 255.460938 385.0625 256.082031 386.804688 256.621094 388.578125 C 257.160156 390.351562 257.609375 392.148438 257.96875 393.964844 C 258.332031 395.78125 258.601562 397.613281 258.785156 399.457031 C 258.964844 401.300781 259.058594 403.148438 259.058594 405 Z M 259.058594 405 " fill-opacity="1" fill-rule="nonzero"/><path fill="#ededed" d="M 664.082031 405 C 664.082031 406.851562 663.992188 408.699219 663.808594 410.542969 C 663.628906 412.386719 663.355469 414.21875 662.996094 416.035156 C 662.632812 417.851562 662.183594 419.648438 661.648438 421.421875 C 661.109375 423.195312 660.484375 424.9375 659.777344 426.648438 C 659.066406 428.359375 658.277344 430.03125 657.402344 431.667969 C 656.53125 433.300781 655.578125 434.886719 654.550781 436.429688 C 653.519531 437.96875 652.417969 439.457031 651.242188 440.886719 C 650.066406 442.320312 648.824219 443.691406 647.515625 445 C 646.203125 446.3125 644.832031 447.554688 643.402344 448.730469 C 641.96875 449.90625 640.480469 451.007812 638.941406 452.035156 C 637.402344 453.066406 635.8125 454.015625 634.179688 454.890625 C 632.546875 455.761719 630.871094 456.554688 629.160156 457.265625 C 627.449219 457.972656 625.707031 458.597656 623.933594 459.132812 C 622.160156 459.671875 620.367188 460.121094 618.550781 460.484375 C 616.730469 460.84375 614.902344 461.117188 613.058594 461.296875 C 611.214844 461.480469 609.367188 461.570312 607.511719 461.570312 C 605.660156 461.570312 603.8125 461.480469 601.96875 461.296875 C 600.125 461.117188 598.292969 460.84375 596.476562 460.484375 C 594.660156 460.121094 592.863281 459.671875 591.089844 459.132812 C 589.320312 458.597656 587.578125 457.972656 585.863281 457.265625 C 584.152344 456.554688 582.480469 455.761719 580.847656 454.890625 C 579.210938 454.015625 577.625 453.066406 576.085938 452.035156 C 574.542969 451.007812 573.058594 449.90625 571.625 448.730469 C 570.191406 447.554688 568.820312 446.3125 567.511719 445 C 566.203125 443.691406 564.960938 442.320312 563.785156 440.886719 C 562.609375 439.457031 561.507812 437.96875 560.476562 436.429688 C 559.449219 434.886719 558.496094 433.300781 557.621094 431.667969 C 556.75 430.03125 555.957031 428.359375 555.25 426.648438 C 554.539062 424.9375 553.917969 423.195312 553.378906 421.421875 C 552.839844 419.648438 552.390625 417.851562 552.03125 416.035156 C 551.667969 414.21875 551.398438 412.386719 551.214844 410.542969 C 551.035156 408.699219 550.941406 406.851562 550.941406 405 C 550.941406 403.148438 551.035156 401.300781 551.214844 399.457031 C 551.398438 397.613281 551.667969 395.78125 552.03125 393.964844 C 552.390625 392.148438 552.839844 390.351562 553.378906 388.578125 C 553.917969 386.804688 554.539062 385.0625 555.25 383.351562 C 555.957031 381.640625 556.75 379.96875 557.621094 378.332031 C 558.496094 376.699219 559.449219 375.113281 560.476562 373.570312 C 561.507812 372.03125 562.609375 370.542969 563.785156 369.113281 C 564.960938 367.679688 566.203125 366.308594 567.511719 365 C 568.820312 363.6875 570.191406 362.445312 571.625 361.269531 C 573.058594 360.09375 574.542969 358.992188 576.085938 357.964844 C 577.625 356.933594 579.210938 355.984375 580.847656 355.109375 C 582.480469 354.238281 584.152344 353.445312 585.863281 352.734375 C 587.578125 352.027344 589.320312 351.402344 591.089844 350.867188 C 592.863281 350.328125 594.660156 349.878906 596.476562 349.515625 C 598.292969 349.15625 600.125 348.882812 601.96875 348.703125 C 603.8125 348.519531 605.660156 348.429688 607.511719 348.429688 C 609.367188 348.429688 611.214844 348.519531 613.058594 348.703125 C 614.902344 348.882812 616.730469 349.15625 618.550781 349.515625 C 620.367188 349.878906 622.160156 350.328125 623.933594 350.867188 C 625.707031 351.402344 627.449219 352.027344 629.160156 352.734375 C 630.871094 353.445312 632.546875 354.238281 634.179688 355.109375 C 635.8125 355.984375 637.402344 356.933594 638.941406 357.964844 C 640.480469 358.992188 641.96875 360.09375 643.402344 361.269531 C 644.832031 362.445312 646.203125 363.6875 647.515625 365 C 648.824219 366.308594 650.066406 367.679688 651.242188 369.113281 C 652.417969 370.542969 653.519531 372.03125 654.550781 373.570312 C 655.578125 375.113281 656.53125 376.699219 657.402344 378.332031 C 658.277344 379.96875 659.066406 381.640625 659.777344 383.351562 C 660.484375 385.0625 661.109375 386.804688 661.648438 388.578125 C 662.183594 390.351562 662.632812 392.148438 662.996094 393.964844 C 663.355469 395.78125 663.628906 397.613281 663.808594 399.457031 C 663.992188 401.300781 664.082031 403.148438 664.082031 405 Z M 664.082031 405 " fill-opacity="1" fill-rule="nonzero"/><path fill="#ededed" d="M 405 809.90625 C 181.734375 809.90625 0.09375 628.261719 0.09375 405 C 0.09375 181.734375 181.734375 0.09375 405 0.09375 C 628.261719 0.09375 809.90625 181.734375 809.90625 405 C 809.90625 628.265625 628.265625 809.90625 405 809.90625 Z M 405 43.457031 C 205.644531 43.457031 43.457031 205.644531 43.457031 405 C 43.457031 604.355469 205.644531 766.542969 405 766.542969 C 604.355469 766.542969 766.542969 604.355469 766.542969 405 C 766.542969 205.644531 604.355469 43.457031 405 43.457031 Z M 405 43.457031 " fill-opacity="1" fill-rule="nonzero"/></svg>