<svg xmlns="http://www.w3.org/2000/svg" xmlns:xlink="http://www.w3.org/1999/xlink" width="1080" zoomAndPan="magnify" viewBox="0 0 810 809.999993" height="1080" preserveAspectRatio="xMidYMid meet" version="1.0"><path stroke-linecap="butt" transform="matrix(-33.749998, 0, 0, -33.749998, 809.999963, 809.999979)" fill-opacity="1" fill="#ededed" fill-rule="nonzero" stroke-linejoin="miter" d="M 2.999999 21 C 2.967244 21 2.934606 20.99838 2.901967 20.995139 C 2.869443 20.992014 2.837036 20.987153 2.80486 20.980787 C 2.7728 20.974422 2.741087 20.966436 2.709721 20.956945 C 2.678356 20.947454 2.647568 20.936459 2.61736 20.923843 C 2.587036 20.911343 2.557522 20.897338 2.528587 20.881945 C 2.499768 20.866436 2.471643 20.849653 2.444443 20.831482 C 2.417244 20.813311 2.390971 20.79375 2.365624 20.773033 C 2.340277 20.7522 2.316087 20.730209 2.292939 20.707061 C 2.269791 20.683912 2.2478 20.659723 2.226967 20.634375 C 2.206249 20.609028 2.186689 20.582755 2.168518 20.555556 C 2.150346 20.528357 2.133564 20.500232 2.118055 20.471412 C 2.102661 20.442477 2.088656 20.412963 2.076156 20.382639 C 2.063541 20.352431 2.052545 20.321644 2.043055 20.290278 C 2.033564 20.258912 2.025578 20.227199 2.019212 20.195139 C 2.012846 20.162963 2.007985 20.130556 2.00486 20.098033 C 2.001619 20.065394 1.999999 20.032755 1.999999 20 L 1.999999 12 C 1.999999 11.967245 2.001619 11.934606 2.00486 11.901968 C 2.007985 11.869444 2.012846 11.837037 2.019212 11.804861 C 2.025578 11.772801 2.033564 11.741088 2.043055 11.709722 C 2.052545 11.678356 2.063541 11.647569 2.076156 11.617361 C 2.088656 11.587037 2.102661 11.557523 2.118055 11.528588 C 2.133564 11.499768 2.150346 11.471643 2.168518 11.444444 C 2.186689 11.417245 2.206249 11.390972 2.226967 11.365625 C 2.2478 11.340278 2.269791 11.316088 2.292939 11.29294 C 2.316087 11.269792 2.340277 11.247801 2.365624 11.226968 C 2.390971 11.20625 2.417244 11.18669 2.444443 11.168518 C 2.471643 11.150347 2.499768 11.133565 2.528587 11.118056 C 2.557522 11.102662 2.587036 11.088657 2.61736 11.076157 C 2.647568 11.063542 2.678356 11.052546 2.709721 11.043055 C 2.741087 11.033565 2.7728 11.025579 2.80486 11.019213 C 2.837036 11.012847 2.869443 11.007986 2.901967 11.004861 C 2.934606 11.00162 2.967244 11 2.999999 11 L 5.999999 11 L 5.999999 21 Z M 19.948958 10 L 14.178009 10 L 14.178009 5 C 14.178009 3 11.101967 3 11.101967 3 C 11.101967 3 11.101967 7 10.076041 8 C 9.520023 8.543055 8.668981 10.348032 7.999999 11 L 7.999999 21 L 18.643981 21 C 18.702778 21.000579 18.761574 20.998612 18.820139 20.994098 C 18.878819 20.989584 18.937153 20.982524 18.995139 20.972917 C 19.053241 20.963311 19.110648 20.951274 19.167708 20.93669 C 19.224653 20.922107 19.280903 20.905093 19.336458 20.885649 C 19.391898 20.866204 19.446528 20.844445 19.500116 20.820255 C 19.553704 20.796065 19.606134 20.769676 19.657523 20.740973 C 19.708796 20.712269 19.758796 20.681366 19.807523 20.648264 C 19.856134 20.615278 19.903241 20.580209 19.948842 20.543056 C 19.994444 20.505903 20.038426 20.466899 20.080671 20.425926 C 20.122801 20.384954 20.163194 20.342362 20.201736 20.297917 C 20.240278 20.253473 20.276852 20.207408 20.311343 20.159838 C 20.345833 20.112269 20.378356 20.063195 20.408565 20.012848 C 20.438889 19.962385 20.466898 19.910764 20.492824 19.857986 C 20.518634 19.805093 20.54213 19.751274 20.563194 19.696412 C 20.584375 19.641436 20.603125 19.585764 20.619444 19.529283 C 20.635764 19.472801 20.649653 19.415741 20.660995 19.357986 L 21.960995 12.357986 C 21.967245 12.321644 21.972569 12.285185 21.976852 12.248611 C 21.981134 12.212037 21.984375 12.175347 21.98669 12.138542 C 21.988889 12.101852 21.990162 12.064931 21.990394 12.028125 C 21.990625 11.991319 21.989931 11.954514 21.988079 11.917708 C 21.986343 11.880903 21.983565 11.844097 21.979745 11.807523 C 21.975926 11.770833 21.971181 11.734259 21.965394 11.697917 C 21.959606 11.661574 21.952778 11.625347 21.945023 11.589352 C 21.937269 11.553241 21.928472 11.517477 21.91875 11.481944 C 21.908912 11.446412 21.898264 11.411227 21.886574 11.376273 C 21.874884 11.341319 21.862269 11.306713 21.848727 11.272454 C 21.835069 11.238194 21.820602 11.204398 21.805208 11.170833 C 21.789815 11.137384 21.77338 11.104398 21.756134 11.071875 C 21.738889 11.039236 21.720833 11.007176 21.701852 10.975694 C 21.682755 10.944097 21.662963 10.913079 21.642245 10.882523 C 21.621528 10.852083 21.6 10.822222 21.577662 10.79294 C 21.555324 10.763657 21.532176 10.734954 21.508218 10.706944 C 21.484375 10.678935 21.459722 10.651505 21.434259 10.624884 C 21.408796 10.598148 21.382755 10.572222 21.355903 10.546991 C 21.329051 10.521759 21.301505 10.497222 21.27338 10.473495 C 21.245139 10.449768 21.216319 10.426852 21.186921 10.40463 C 21.157407 10.382523 21.127431 10.361227 21.096759 10.340741 C 21.066204 10.320139 21.035069 10.300579 21.003356 10.281713 C 20.971643 10.262963 20.939468 10.245023 20.906829 10.228009 C 20.874074 10.210995 20.840972 10.194792 20.807407 10.17963 C 20.773843 10.164352 20.73993 10.150116 20.705555 10.136805 C 20.671296 10.12338 20.636574 10.110995 20.601505 10.099537 C 20.566551 10.088079 20.53125 10.077662 20.495602 10.068171 C 20.459954 10.058565 20.42419 10.050116 20.388079 10.042592 C 20.352083 10.034954 20.315856 10.028472 20.279398 10.022917 C 20.24294 10.017361 20.206366 10.012731 20.169676 10.009259 C 20.133102 10.005671 20.096296 10.003125 20.059491 10.00162 C 20.022685 10 19.98588 9.999537 19.948958 10 Z M 19.948958 10 " stroke="#ededed" stroke-width="1" stroke-opacity="1" stroke-miterlimit="4"/></svg>