<svg width="17" height="16" viewBox="0 0 17 16" fill="none" xmlns="http://www.w3.org/2000/svg">
<path d="M10.7642 2C10.5717 2 10.4245 2.14717 10.4245 2.33962C10.4245 2.53208 10.5717 2.67925 10.7642 2.67925H13.3454L8.0925 7.93212C7.95665 8.06797 7.95665 8.28297 8.0925 8.4075C8.16042 8.47543 8.25094 8.50943 8.33019 8.50943C8.40943 8.50943 8.49996 8.47543 8.56788 8.4075L13.8208 3.15463V5.73585C13.8208 5.9283 13.9679 6.07547 14.1604 6.07547C14.3528 6.07547 14.5 5.9283 14.5 5.73585V2.33962C14.5 2.14717 14.3528 2 14.1604 2H10.7642ZM3.9717 4.26415C3.1566 4.26415 2.5 4.92075 2.5 5.73585V12.5283C2.5 13.3434 3.1566 14 3.9717 14H10.7642C11.5792 14 12.2358 13.3434 12.2358 12.5283V7.43396C12.2358 7.24151 12.0887 7.09434 11.8962 7.09434C11.7038 7.09434 11.5566 7.24151 11.5566 7.43396V12.5283C11.5566 12.9698 11.2057 13.3208 10.7642 13.3208H3.9717C3.53019 13.3208 3.17925 12.9698 3.17925 12.5283V5.73585C3.17925 5.29434 3.53019 4.9434 3.9717 4.9434H9.06604C9.25849 4.9434 9.40566 4.79623 9.40566 4.60377C9.40566 4.41132 9.25849 4.26415 9.06604 4.26415H3.9717Z" fill="white"/>
</svg>
