<svg width="14" height="14" viewBox="0 0 14 14" fill="none" xmlns="http://www.w3.org/2000/svg">
<path d="M6.99961 0.600006C3.46521 0.600006 0.599609 3.46561 0.599609 7.00001C0.599609 9.99894 2.66468 12.5083 5.44868 13.2027C5.41881 13.1163 5.39961 13.016 5.39961 12.8917V11.7979C5.13988 11.7979 4.70468 11.7979 4.59534 11.7979C4.15748 11.7979 3.76814 11.6096 3.57934 11.2597C3.36974 10.8709 3.33348 10.2763 2.81401 9.91254C2.65988 9.79147 2.77721 9.65334 2.95481 9.67201C3.28281 9.76481 3.55481 9.98987 3.81081 10.3237C4.06574 10.6581 4.18574 10.7339 4.66201 10.7339C4.89294 10.7339 5.23854 10.7205 5.56388 10.6693C5.73881 10.2251 6.04121 9.816 6.41081 9.62294C4.27961 9.40374 3.26254 8.34347 3.26254 6.90401C3.26254 6.28427 3.52654 5.68481 3.97508 5.17974C3.82788 4.67841 3.64281 3.65601 4.03161 3.26667C4.99054 3.26667 5.57028 3.88854 5.70948 4.05654C6.18734 3.89281 6.71214 3.80001 7.26361 3.80001C7.81614 3.80001 8.34308 3.89281 8.82201 4.05761C8.95961 3.89067 9.53988 3.26667 10.5009 3.26667C10.8913 3.65654 10.7041 4.68321 10.5553 5.18347C11.0012 5.68747 11.2636 6.28534 11.2636 6.90401C11.2636 8.34241 10.2481 9.40214 8.12014 9.62241C8.70574 9.92801 9.13294 10.7867 9.13294 11.4336V12.8917C9.13294 12.9472 9.12068 12.9872 9.11428 13.0347C11.6081 12.1605 13.3996 9.79254 13.3996 7.00001C13.3996 3.46561 10.534 0.600006 6.99961 0.600006Z" fill="white"/>
</svg>
