<svg width="291" height="267" viewBox="0 0 291 267" fill="none" xmlns="http://www.w3.org/2000/svg">
<path d="M133.029 0C123.253 0 113.834 6.13148 107.566 16.0869C107.339 16.4165 106.981 16.5484 106.787 16.878L14.0304 146.101C4.74174 159.32 0 174.681 0 190.669V270.049C0 311.782 33.7118 346 74.8286 346H232.8C245.401 346 255.827 340.824 262.939 333.869C270.052 326.913 274.371 318.342 274.371 309.607C274.371 302.387 272.715 296.454 270.994 291.938C279.081 287.52 291 279.147 291 260.027C291 247.995 285.251 240.117 279.568 234.974C285.251 229.304 291 220.964 291 208.338C291 189.417 279.178 181.67 272.293 178.011C273.007 173.659 274.371 167.264 274.371 159.55C274.371 143.035 259.009 127.508 236.437 127.377C236.373 127.377 236.243 127.377 236.178 127.377C210.358 126.618 148.001 126.585 132.509 126.585C135.27 120.289 137.283 115.905 142.382 104.169C150.144 86.3022 158.296 67.5781 160.829 60.3918C160.829 60.3588 160.829 60.161 160.829 60.128C163.07 54.0955 166.286 48.1288 166.286 38.7668C166.286 25.7456 161.284 15.5924 154.594 9.23018C147.903 2.86795 140.109 0 133.029 0ZM133.029 16.878C135.075 16.878 139.654 18.2955 143.162 21.625C146.669 24.9545 149.657 29.8662 149.657 38.7668C149.657 44.5027 147.968 46.9091 145.24 54.3262C145.24 54.4251 145.24 54.491 145.24 54.5899C143.584 59.3039 135.107 79.4125 127.312 97.3125C119.518 115.212 112.243 131.596 112.243 131.596C111.106 134.2 111.333 137.2 112.86 139.607C114.386 141.98 116.985 143.43 119.778 143.463C119.778 143.463 208.149 143.43 235.918 144.255C236.015 144.255 236.08 144.255 236.178 144.255C251.67 144.255 257.743 154.21 257.743 159.55C257.743 166.308 255.404 180.912 255.404 180.912C254.787 184.933 257.093 188.79 260.861 190.142C260.861 190.142 274.371 194.559 274.371 208.338C274.371 220.7 262.16 228.117 262.16 228.117C259.302 229.667 257.58 232.732 257.743 236.029C257.905 239.292 259.919 242.193 262.939 243.413C262.939 243.413 274.371 247.666 274.371 260.027C274.371 273.939 257.223 280.598 257.223 280.598C254.755 281.488 252.839 283.531 252.092 286.07C251.312 288.608 251.767 291.377 253.326 293.52C253.326 293.52 257.743 299.585 257.743 309.607C257.743 311.848 255.827 317.518 251.507 321.738C247.188 325.957 240.984 329.122 232.8 329.122H74.8286C42.7731 329.122 16.6286 302.585 16.6286 270.049V190.669C16.6286 178.044 20.2985 166.506 27.5411 156.122C27.5735 156.056 27.5086 155.924 27.5411 155.858L120.557 26.1082C120.752 25.8445 120.914 25.5808 121.077 25.3171C124.812 19.0208 129.846 16.878 133.029 16.878Z" fill="#000235"/>
</svg>
