<svg width="56" height="56" viewBox="0 0 56 56" fill="none" xmlns="http://www.w3.org/2000/svg">
<path d="M28.3333 5C15.4463 5 5 15.4463 5 28.3333C5 41.2203 15.4463 51.6667 28.3333 51.6667C41.2203 51.6667 51.6667 41.2203 51.6667 28.3333C51.6667 15.4463 41.2203 5 28.3333 5ZM28.3333 11.4167C32.5217 11.4167 35.9167 14.8117 35.9167 19C35.9167 23.1883 32.5217 26.5833 28.3333 26.5833C24.145 26.5833 20.75 23.1883 20.75 19C20.75 14.8117 24.145 11.4167 28.3333 11.4167ZM28.3333 47C22.6447 47 17.551 44.4543 14.128 40.4387C13.239 39.3957 13.4373 37.83 14.5317 37.0063C18.0713 34.344 24.5207 33 28.3333 33C32.146 33 38.5953 34.344 42.1373 37.0063C43.2317 37.83 43.43 39.398 42.541 40.4387C39.1157 44.4543 34.022 47 28.3333 47Z" fill="white"/>
</svg>
